<?xml version="1.0" standalone="no"?>
<!DOCTYPE svg PUBLIC "-//W3C//DTD SVG 20010904//EN"
 "http://www.w3.org/TR/2001/REC-SVG-20010904/DTD/svg10.dtd">
<svg version="1.0" xmlns="http://www.w3.org/2000/svg"
 width="180.000000pt" height="180.000000pt" viewBox="0 0 180.000000 180.000000"
 preserveAspectRatio="xMidYMid meet">
<metadata>
Created by potrace 1.14, written by Peter Selinger 2001-2017
</metadata>
<g transform="translate(0.000000,180.000000) scale(0.100000,-0.100000)"
fill="#000000" stroke="none">
<path d="M719 1572 c0 -26 0 -66 1 -89 l1 -42 -133 0 c-73 0 -154 0 -180 0
l-46 -1 -2 -67 c-1 -38 -1 -78 -1 -90 1 -22 -2 -23 -89 -23 l-91 0 1 -270 1
-270 22 -1 c12 0 52 0 90 1 l67 1 0 -90 0 -91 180 0 179 0 1 -72 c1 -67 0
-131 -2 -147 0 -3 0 -36 1 -73 l1 -68 180 0 180 0 1 58 c0 31 0 112 -1 180
l-1 122 182 0 181 0 -4 30 c-3 17 -2 30 2 30 4 0 4 19 1 43 -11 69 -5 80 40
75 21 -2 39 -1 39 3 0 3 17 3 38 -1 21 -3 43 -5 50 -2 9 3 12 69 12 272 l0
269 -87 3 -88 3 -6 43 c-3 24 -3 45 1 47 3 2 4 21 2 43 -3 27 -9 39 -20 40
-10 1 -90 2 -179 2 l-163 1 0 90 0 90 -180 -1 -180 -2 -1 -46z"/>
</g>
</svg>
